<?xml version="1.0" encoding="UTF-8" standalone="no"?>
<svg
   viewBox="0 0 364 314"
   version="1.1"
   id="svg6"
   sodipodi:docname="heart.svg"
   width="364"
   height="314"
   xmlns:inkscape="http://www.inkscape.org/namespaces/inkscape"
   xmlns:sodipodi="http://sodipodi.sourceforge.net/DTD/sodipodi-0.dtd"
   xmlns="http://www.w3.org/2000/svg"
   xmlns:svg="http://www.w3.org/2000/svg">
  <defs
     id="defs10" />
  <sodipodi:namedview
     id="namedview8"
     pagecolor="#ffffff"
     bordercolor="#000000"
     borderopacity="0.25"
     inkscape:showpageshadow="2"
     inkscape:pageopacity="0.0"
     inkscape:pagecheckerboard="0"
     inkscape:deskcolor="#d1d1d1" />
  <path
     d="m 158,0 h 52 v 2 h 20 v 2 h 10 v 2 h 10 v 2 h 8 v 2 h 8 v 2 h 6 v 2 h 4 v 2 h 6 v 2 h 6 v 2 h 4 v 2 h 4 v 2 h 4 v 2 h 4 v 2 h 2 v 2 h 4 v 2 h 2 v 2 h 4 v 2 h 2 v 2 h 2 v 2 h 2 v 2 h 2 v 2 h 4 v 2 h 2 v 2 h 2 v 2 h 2 v 4 h 2 v 2 h 2 v 2 h 2 v 4 h 2 v 2 h 2 v 2 h 2 v 4 h 2 v 4 h 2 v 4 h 2 v 4 h 2 v 4 h 2 v 6 h 2 v 8 h 2 v 10 h 2 v 14 h 2 v 12 h -2 v 20 h -2 v 10 h -2 v 8 h -2 v 8 h -2 v 4 h -2 v 6 h -2 v 4 h -2 v 4 h -2 v 4 h -2 v 4 h -2 v 2 h -2 v 4 h -2 v 2 h -2 v 4 h -2 v 2 h -2 v 2 h -2 v 4 h -2 v 2 h -2 v 2 h -2 v 2 h -2 v 2 h -2 v 2 h -2 v 2 h -2 v 2 h -4 v 2 h -2 v 2 h -2 v 2 h -2 v 2 h -2 v 2 h -4 v 2 h -2 v 2 h -4 v 2 h -2 v 2 h -4 v 2 h -2 v 2 h -4 v 2 h -4 v 2 h -4 v 2 h -4 v 2 h -6 v 2 h -4 v 2 h -6 v 2 h -6 v 2 h -6 v 2 h -8 v 2 h -10 v 2 h -12 v 2 h -24 v 2 h -34 v -2 h -20 v -2 h -6 v -2 h -6 v 2 h -2 v 2 h -2 v 2 h -2 v 2 h -2 v 2 h -2 v 2 h -2 v 2 h -4 v 2 h -4 v 2 h -2 v 2 h -4 v 2 h -4 v 2 h -6 v 2 h -6 v 2 H 70 v 2 h -8 v -2 h -4 v -2 h -2 v -4 h 2 v -2 h 2 v -2 h 2 v -2 h 2 v -2 h 2 v -4 h 2 v -4 h 2 v -4 h 2 v -6 h 2 v -6 h 2 v -4 h -6 v -2 h -4 v -2 h -4 v -2 h -4 v -2 h -2 v -2 h -4 v -2 h -4 v -2 h -2 v -2 h -2 v -2 h -2 v -2 h -4 v -2 h -2 v -2 h -2 v -2 h -2 v -2 h -2 v -4 h -2 v -2 h -2 v -2 h -2 v -2 h -2 v -2 h -2 v -4 h -2 v -4 h -2 v -2 h -2 v -4 h -2 v -4 h -2 v -4 H 8 v -6 H 6 v -6 H 4 V 186 H 2 V 174 H 0 v -40 h 2 v -12 h 2 v -8 h 2 v -8 h 2 v -6 h 2 v -4 h 2 v -6 h 2 v -4 h 2 v -4 h 2 v -4 h 2 v -2 h 2 v -4 h 2 v -4 h 2 v -2 h 2 v -2 h 2 v -4 h 2 v -2 h 2 v -2 h 2 v -4 h 2 v -2 h 2 v -2 h 2 v -2 h 2 v -2 h 2 v -2 h 4 v -2 h 2 v -2 h 2 v -2 h 4 v -2 h 2 v -2 h 2 v -2 h 4 v -2 h 4 v -2 h 2 v -2 h 4 v -2 h 4 v -2 h 6 v -2 h 4 v -2 h 4 v -2 h 4 v -2 h 6 v -2 h 6 V 8 h 8 V 6 h 10 V 4 h 14 V 2 h 16 z m 8,4 v 2 h -20 v 2 h -14 v 2 h -10 v 2 h -8 v 2 h -6 v 2 h -6 v 2 h -6 v 2 h -4 v 2 h -6 v 2 h -4 v 2 h -4 v 2 h -4 v 2 h -4 v 2 h -2 v 2 h -4 v 2 h -2 v 2 h -4 v 2 h -2 v 2 h -2 v 2 h -2 v 2 h -2 v 2 h -2 v 2 h -2 v 2 h -2 v 2 h -2 v 2 h -2 v 2 h -2 v 2 h -2 v 2 h -2 v 4 h -2 v 2 h -2 v 4 h -2 v 2 h -2 v 4 h -2 v 4 h -2 v 2 h -2 v 4 h -2 v 6 h -2 v 4 h -2 v 6 h -2 v 6 h -2 v 8 H 8 v 8 H 6 v 14 H 4 v 32 h 2 v 10 h 2 v 10 h 2 v 6 h 2 v 6 h 2 v 4 h 2 v 6 h 2 v 4 h 2 v 2 h 2 v 4 h 2 v 2 h 2 v 4 h 2 v 2 h 2 v 2 h 2 v 4 h 2 v 2 h 2 v 2 h 2 v 2 h 2 v 2 h 4 v 2 h 2 v 2 h 2 v 2 h 2 v 2 h 4 v 2 h 2 v 2 h 4 v 2 h 4 v 2 h 4 v 2 h 2 v 2 h 6 v 2 h 4 v 10 h -2 v 6 h -2 v 6 h -2 v 4 h -2 v 2 h -2 v 4 h -2 v 2 h -2 v 2 h -2 v 2 h -2 v 2 h 16 v -2 h 6 v -2 h 6 v -2 h 4 v -2 h 4 v -2 h 4 v -2 h 2 v -2 h 2 v -2 h 4 v -2 h 2 v -2 h 2 v -2 h 2 v -2 h 2 v -2 h 2 v -2 h 6 v 2 h 10 v 2 h 20 v 2 h 30 v -2 h 24 v -2 h 12 v -2 h 8 v -2 h 10 v -2 h 6 v -2 h 6 v -2 h 6 v -2 h 4 v -2 h 6 v -2 h 4 v -2 h 4 v -2 h 4 v -2 h 4 v -2 h 2 v -2 h 4 v -2 h 2 v -2 h 4 v -2 h 2 v -2 h 2 v -2 h 2 v -2 h 4 v -2 h 2 v -2 h 2 v -2 h 2 v -2 h 2 v -2 h 2 v -2 h 2 v -2 h 2 v -2 h 2 v -2 h 2 v -2 h 2 v -2 h 2 v -4 h 2 v -2 h 2 v -2 h 2 v -2 h 2 v -4 h 2 v -2 h 2 v -4 h 2 v -4 h 2 v -4 h 2 v -4 h 2 v -6 h 2 v -6 h 2 v -8 h 2 v -8 h 2 v -12 h 2 v -38 h -2 v -10 h -2 v -8 h -2 v -4 h -2 v -6 h -2 v -4 h -2 v -4 h -2 v -4 h -2 v -4 h -2 v -2 h -2 v -2 h -2 v -4 h -2 v -2 h -2 v -2 h -2 v -2 h -2 v -2 h -2 v -2 h -2 v -2 h -2 v -2 h -2 v -2 h -2 v -2 h -2 v -2 h -4 v -2 h -2 v -2 h -2 v -2 h -4 v -2 h -4 v -2 h -2 v -2 h -4 v -2 h -4 v -2 h -4 v -2 h -6 v -2 h -4 v -2 h -6 v -2 h -8 v -2 h -8 v -2 h -8 v -2 h -8 V 8 H 226 V 6 H 206 V 4 Z"
     id="path2" />
  <path
     d="m 214,86 h 24 v 2 h 4 v 2 h 4 v 2 h 4 v 2 h 2 v 2 h 2 v 2 h 2 v 4 h 2 v 4 h 2 v 4 h 2 v 8 h 2 v 12 h -2 v 12 h -2 v 6 h -2 v 4 h -2 v 4 h -2 v 4 h -2 v 4 h -2 v 2 h -2 v 2 h -2 v 4 h -2 v 2 h -2 v 2 h -2 v 2 h -2 v 2 h -2 v 2 h -2 v 2 h -2 v 4 h -2 v 2 h -4 v 2 h -2 v 2 h -2 v 2 h -2 v 2 h -2 v 2 h -2 v 2 h -2 v 2 h -4 v 2 h -2 v 2 h -2 v 2 h -4 v 2 h -2 v 2 h -2 v 2 h -4 v 2 h -2 v 2 h -2 v 2 h -4 v 2 h -2 v 2 h -6 v -2 h -2 v -2 h -4 v -2 h -4 v -2 h -2 v -2 h -4 v -2 h -2 v -2 h -4 v -2 h -2 v -2 h -4 v -2 h -2 v -2 h -4 v -2 h -2 v -2 h -2 v -2 h -4 v -2 h -2 v -2 h -2 v -2 h -2 v -2 h -2 v -2 h -2 v -2 h -2 v -2 h -2 v -2 h -2 v -4 h -2 v -2 h -2 v -2 h -2 v -4 h -2 v -2 h -2 v -6 h -2 v -4 h -2 v -6 h -2 v -10 h -2 v -12 h 2 v -10 h 2 v -6 h 2 v -4 h 2 v -2 h 2 v -4 h 2 v -2 h 2 v -2 h 2 v -2 h 4 v -2 h 2 v -2 h 4 v -2 h 4 v -2 h 8 v -2 h 10 v 2 h 8 v 2 h 6 v 2 h 4 v 2 h 2 v 2 h 2 v 2 h 2 v 2 h 2 v 2 h 2 v 2 h 2 v 4 h 2 v 4 h 2 v -2 h 2 v -4 h 2 v -2 h 2 v -4 h 2 v -2 h 2 v -2 h 2 v -2 h 4 v -2 h 2 v -2 h 4 v -2 h 4 v -2 h 4 z m 6,4 v 2 h -8 v 2 h -4 v 2 h -4 v 2 h -2 v 2 h -2 v 2 h -2 v 2 h -2 v 2 h -2 v 2 h -2 v 2 h -2 v 4 h -2 v 2 h -2 v 4 h -2 v 2 h -2 v -4 h -2 v -2 h -2 v -4 h -2 v -2 h -2 v -4 h -2 v -2 h -2 v -2 h -4 v -2 h -2 v -2 h -4 v -2 h -4 v -2 h -22 v 2 h -2 v 2 h -6 v 2 h -2 v 2 h -2 v 2 h -2 v 2 h -2 v 2 h -2 v 4 h -2 v 2 h -2 v 4 h -2 v 8 h -2 v 20 h 2 v 8 h 2 v 6 h 2 v 4 h 2 v 4 h 2 v 2 h 2 v 4 h 2 v 2 h 2 v 2 h 2 v 2 h 2 v 4 h 2 v 2 h 2 v 2 h 4 v 2 h 2 v 2 h 2 v 2 h 2 v 2 h 2 v 2 h 4 v 2 h 2 v 2 h 2 v 2 h 4 v 2 h 2 v 2 h 4 v 2 h 2 v 2 h 4 v 2 h 4 v 2 h 4 v 2 h 2 v 2 h 4 v -2 h 4 v -2 h 2 v -2 h 4 v -2 h 2 v -2 h 4 v -2 h 2 v -2 h 2 v -2 h 2 v -2 h 4 v -2 h 2 v -2 h 2 v -2 h 2 v -2 h 4 v -2 h 2 v -2 h 2 v -2 h 2 v -2 h 2 v -2 h 2 v -2 h 2 v -2 h 2 v -2 h 2 v -2 h 2 v -2 h 2 v -4 h 2 v -2 h 2 v -2 h 2 v -4 h 2 v -2 h 2 v -4 h 2 v -4 h 2 v -4 h 2 v -4 h 2 v -10 h 2 v -20 h -2 v -4 h -2 v -6 h -2 v -2 h -2 v -2 h -2 v -2 h -2 v -2 h -2 v -2 h -4 v -2 h -6 v -2 z"
     id="path4" />
</svg>
